<svg width="30.000000" height="30.000000" viewBox="0 0 30 30" fill="none" xmlns="http://www.w3.org/2000/svg" xmlns:xlink="http://www.w3.org/1999/xlink">
	<desc>
			Created with Pixso.
	</desc>
	<defs/>
	<path id="Vector" d="M14.061 29.4554C13.7078 29.0924 13.5229 28.6304 13.5062 28.0693C13.4896 27.5082 13.6584 27.0462 14.0128 26.6832L23.451 16.9802L1.92615 16.9802C1.38043 16.9802 0.922668 16.7901 0.552795 16.4099C0.182983 16.0297 -0.00128174 15.5597 0 15C0 14.4389 0.184937 13.9683 0.554749 13.5881C0.924561 13.2079 1.38171 13.0185 1.92615 13.0198L23.451 13.0198L14.0128 3.31683C13.6597 2.9538 13.4908 2.49175 13.5062 1.93069C13.5217 1.36964 13.7065 0.907591 14.061 0.544554C14.4141 0.181517 14.8635 0 15.4093 0C15.955 0 16.4045 0.181517 16.7576 0.544554L29.4703 13.6139C29.6629 13.7789 29.7996 13.9855 29.8806 14.2337C29.9614 14.4818 30.0013 14.7373 29.9999 15C29.9999 15.264 29.9601 15.5116 29.8806 15.7426C29.801 15.9736 29.6642 16.1881 29.4703 16.3861L16.7576 29.4554C16.4045 29.8185 15.955 30 15.4093 30C14.8635 30 14.4141 29.8185 14.061 29.4554Z" fill="#F3F6F9" fill-opacity="1.000000" fill-rule="nonzero"/>
</svg>
